<?xml version="1.0" encoding="utf-8"?>
<!-- Generator: Adobe Illustrator 26.2.1, SVG Export Plug-In . SVG Version: 6.00 Build 0)  -->
<svg version="1.1" id="Layer_1" xmlns="http://www.w3.org/2000/svg" xmlns:xlink="http://www.w3.org/1999/xlink" x="0px" y="0px"
	 viewBox="0 0 566.9 566.9" style="enable-background:new 0 0 566.9 566.9;" xml:space="preserve">
<style type="text/css">
	.st0{fill:url(#SVGID_1_);}
	.st1{fill:url(#SVGID_00000137089630110083485760000005482486868253371032_);}
	.st2{fill:url(#SVGID_00000055705925571934455820000013963493789403368869_);}
</style>
<g>
	<path d="M395.7,240.8l-34.8,42c-1,1.2-2.5,1.9-4.1,1.9h-54.2c-2.1,0-4,1.3-4.8,3.3l-16.7,46c-0.7,2-2.6,3.3-4.7,3.3h-34.2
		c-3.2,0-6.3,1.4-8.4,3.9l-87.2,99.4c-1.2,1.4-3.5,0.1-2.8-1.6l30.1-76.5l9.2-25.3h0l16.6-45.5c1.6-4.3,5.6-7.1,10.2-7.1h78.9
		c2.1,0,4-1.3,4.8-3.3L309,239c1.2-3.3-1.2-6.8-4.8-6.8h-82.8l16.6-45.5c1.6-4.3,5.6-7.1,10.2-7.1h83.2l-16.7,45.8
		c-1.2,3.3,1.2,6.8,4.8,6.8h72.1C396.1,232.1,398.6,237.4,395.7,240.8z"/>
	<linearGradient id="SVGID_1_" gradientUnits="userSpaceOnUse" x1="314.334" y1="205.8255" x2="423.1713" y2="205.8255">
		<stop  offset="0" style="stop-color:#FFFFFF"/>
		<stop  offset="1" style="stop-color:#B5B5B5"/>
	</linearGradient>
	<path class="st0" d="M421.8,188.9L386,232.1h-66.6c-3.5,0-6-3.5-4.8-6.8l16.7-45.8h86.1C422.3,179.5,424.9,185.1,421.8,188.9z"/>
	
		<linearGradient id="SVGID_00000063633081303236936090000010732494081318560939_" gradientUnits="userSpaceOnUse" x1="276.4382" y1="333.1776" x2="343.0631" y2="277.5458">
		<stop  offset="0" style="stop-color:#FFFFFF"/>
		<stop  offset="1" style="stop-color:#B5B5B5"/>
	</linearGradient>
	<path style="fill:url(#SVGID_00000063633081303236936090000010732494081318560939_);" d="M349.1,284.8l-41.9,50.6
		c-1.1,1.3-2.7,2.1-4.4,2.1H280v0l17.9-49.3c0.7-2,2.6-3.3,4.8-3.3H349.1z"/>
	
		<linearGradient id="SVGID_00000090985713864962846630000010333018899128098993_" gradientUnits="userSpaceOnUse" x1="224.008" y1="290.8633" x2="301.626" y2="226.0522">
		<stop  offset="0" style="stop-color:#FFFFFF"/>
		<stop  offset="1" style="stop-color:#B5B5B5"/>
	</linearGradient>
	<path style="fill:url(#SVGID_00000090985713864962846630000010333018899128098993_);" d="M309.1,239l-15.5,42.5
		c-0.7,2-2.6,3.3-4.8,3.3h-67.6c-3.5,0-6-3.5-4.8-6.8l15.5-42.5c0.7-2,2.6-3.3,4.8-3.3h67.6C307.9,232.1,310.3,235.6,309.1,239z"/>
</g>
</svg>
