<svg width="645" height="262" viewBox="0 0 645 262" fill="none" xmlns="http://www.w3.org/2000/svg">
<path d="M330.355 68.1738L303.285 195H315.59L325.785 147.188H357.514C367.357 147.188 376.117 145.371 383.793 141.738C391.527 138.105 397.621 132.92 402.074 126.182C406.527 119.443 408.754 111.387 408.754 102.012C408.754 95.2148 407.172 89.2969 404.008 84.2578C400.902 79.1602 396.596 75.2051 391.088 72.3926C385.58 69.5801 379.281 68.1738 372.191 68.1738H330.355ZM340.375 78.8965H368.412C377.084 78.8965 383.881 81.0938 388.803 85.4883C393.783 89.8242 396.273 95.6836 396.273 103.066C396.273 110.156 394.604 116.191 391.264 121.172C387.982 126.152 383.383 129.961 377.465 132.598C371.605 135.176 364.779 136.465 356.986 136.465H328.07L340.375 78.8965Z" fill="white"/>
<path d="M432.284 195H444.061L463.485 103.594H451.708L432.284 195ZM463.397 84.6094C465.565 84.6094 467.382 83.877 468.846 82.4121C470.37 80.8887 471.132 79.043 471.132 76.875C471.132 74.707 470.37 72.8906 468.846 71.4258C467.382 69.9023 465.565 69.1406 463.397 69.1406C461.288 69.1406 459.442 69.9023 457.86 71.4258C456.337 72.8906 455.575 74.707 455.575 76.875C455.575 79.043 456.337 80.8887 457.86 82.4121C459.442 83.877 461.288 84.6094 463.397 84.6094Z" fill="white"/>
<path d="M520.15 195.527C521.205 195.527 522.494 195.439 524.017 195.264C525.599 195.146 526.918 195.029 527.972 194.912L530.082 185.068C529.613 185.068 529.027 185.098 528.324 185.156C527.621 185.215 526.888 185.273 526.127 185.332C525.423 185.332 524.75 185.332 524.105 185.332C520.179 185.332 517.045 184.512 514.701 182.871C512.416 181.172 511.273 178.535 511.273 174.961C511.273 173.848 511.361 172.646 511.537 171.357C511.712 170.068 511.947 168.691 512.24 167.227L523.754 113.35H543.441L545.463 103.594H525.775L530.697 80.2148H519.007L514.173 103.594H500.726L498.705 113.35H512.064L499.935 170.391C499.642 171.797 499.408 173.174 499.232 174.521C499.056 175.811 498.968 177.041 498.968 178.213C498.968 183.955 500.961 188.291 504.945 191.221C508.929 194.092 513.998 195.527 520.15 195.527Z" fill="white"/>
<path d="M578.485 128.291C578.485 134.209 580.272 139.072 583.846 142.881C587.42 146.689 593.192 149.883 601.161 152.461L609.159 155.098C615.604 157.207 619.998 159.316 622.342 161.426C624.745 163.477 625.946 166.26 625.946 169.775C625.946 172.998 624.979 175.898 623.045 178.477C621.17 181.055 618.563 183.105 615.223 184.629C611.883 186.094 608.045 186.826 603.709 186.826C596.62 186.826 590.848 185.127 586.395 181.729C581.942 178.33 579.334 173.906 578.573 168.457H566.883C567.176 173.789 568.875 178.594 571.981 182.871C575.145 187.09 579.393 190.43 584.725 192.891C590.057 195.293 596.209 196.494 603.182 196.494C609.862 196.494 615.78 195.322 620.936 192.979C626.151 190.635 630.223 187.412 633.153 183.311C636.141 179.15 637.635 174.434 637.635 169.16C637.635 163.242 635.848 158.408 632.274 154.658C628.7 150.908 622.782 147.715 614.52 145.078L606.61 142.529C600.575 140.596 596.297 138.486 593.778 136.201C591.258 133.857 589.998 130.898 589.998 127.324C589.998 124.336 590.877 121.67 592.635 119.326C594.452 116.982 596.942 115.137 600.106 113.789C603.329 112.441 607.079 111.768 611.356 111.768C615.399 111.768 619.032 112.529 622.254 114.053C625.477 115.576 628.055 117.686 629.989 120.381C631.981 123.018 633.123 126.064 633.416 129.521H644.666C644.432 124.189 642.879 119.473 640.008 115.371C637.196 111.211 633.329 107.959 628.407 105.615C623.543 103.271 617.918 102.1 611.532 102.1C605.028 102.1 599.286 103.242 594.305 105.527C589.383 107.812 585.516 110.918 582.704 114.844C579.891 118.77 578.485 123.252 578.485 128.291Z" fill="white"/>
<path d="M252.03 61.3L217.23 103.3C216.23 104.5 214.73 105.2 213.13 105.2H158.93C156.83 105.2 154.93 106.5 154.13 108.5L137.43 154.5C136.73 156.5 134.83 157.8 132.73 157.8H98.5299C95.3299 157.8 92.2299 159.2 90.1299 161.7L2.92995 261.1C1.72995 262.5 -0.570058 261.2 0.129942 259.5L30.2299 183L39.4299 157.7L56.0299 112.2C57.6299 107.9 61.6299 105.1 66.2299 105.1H145.13C147.23 105.1 149.13 103.8 149.93 101.8L165.33 59.5C166.53 56.2 164.13 52.7 160.53 52.7H77.7299L94.3299 7.2C95.9299 2.9 99.9299 0.100006 104.53 0.100006H187.73L171.03 45.9C169.83 49.2 172.23 52.7 175.83 52.7H247.93C252.43 52.6 254.93 57.9 252.03 61.3Z" fill="black"/>
<path d="M278.13 9.39999L242.33 52.6H175.73C172.23 52.6 169.73 49.1 170.93 45.8L187.63 0H273.73C278.63 0 281.23 5.59999 278.13 9.39999Z" fill="url(#paint0_linear_1505_33)"/>
<path d="M205.43 105.3L163.53 155.9C162.43 157.2 160.83 158 159.13 158H136.33L154.23 108.7C154.93 106.7 156.83 105.4 159.03 105.4H205.43V105.3Z" fill="url(#paint1_linear_1505_33)"/>
<path d="M165.43 59.5L149.93 102C149.23 104 147.33 105.3 145.13 105.3H77.5299C74.0299 105.3 71.5299 101.8 72.7299 98.5L88.2299 56C88.9299 54 90.8299 52.7 93.0299 52.7H160.63C164.23 52.6 166.63 56.1 165.43 59.5Z" fill="url(#paint2_linear_1505_33)"/>
<defs>
<linearGradient id="paint0_linear_1505_33" x1="0.228425" y1="130.973" x2="644.835" y2="130.973" gradientUnits="userSpaceOnUse">
<stop stop-color="white"/>
<stop offset="1" stop-color="#B5B5B5"/>
</linearGradient>
<linearGradient id="paint1_linear_1505_33" x1="-33.2297" y1="240.229" x2="271.576" y2="-237.943" gradientUnits="userSpaceOnUse">
<stop stop-color="white"/>
<stop offset="1" stop-color="#B5B5B5"/>
</linearGradient>
<linearGradient id="paint2_linear_1505_33" x1="80.3379" y1="111.363" x2="157.956" y2="46.552" gradientUnits="userSpaceOnUse">
<stop stop-color="white"/>
<stop offset="1" stop-color="#B5B5B5"/>
</linearGradient>
</defs>
</svg>
