<svg width="181" height="169" viewBox="0 0 181 169" fill="none" xmlns="http://www.w3.org/2000/svg">
<path d="M162.751 39.5851L140.279 66.707C139.633 67.482 138.664 67.934 137.631 67.934H102.631C101.275 67.934 100.048 68.7735 99.5312 70.065L88.747 99.77C88.295 101.062 87.068 101.901 85.7119 101.901H63.6269C61.5604 101.901 59.5586 102.805 58.2025 104.42L1.89205 168.608C1.11713 169.512 -0.368121 168.673 0.0839118 167.575L19.5213 118.174L25.4623 101.836L36.182 72.4543C37.2152 69.6776 39.7982 67.8694 42.7687 67.8694H93.7193C95.0754 67.8694 96.3024 67.0299 96.819 65.7384L106.764 38.4227C107.539 36.2917 105.989 34.0315 103.664 34.0315H50.195L60.9147 4.64935C61.9479 1.87258 64.5309 0.0644531 67.5014 0.0644531H121.229L110.445 29.6403C109.67 31.7713 111.219 34.0315 113.544 34.0315H160.104C163.01 33.9669 164.624 37.3895 162.751 39.5851Z" fill="#FF0000"/>
<path d="M179.606 6.07016L156.487 33.9671H113.48C111.22 33.9671 109.605 31.7069 110.38 29.5759L121.164 0H176.764C179.929 0 181.608 3.61626 179.606 6.07016Z" fill="url(#paint0_linear_1507_35)"/>
<path d="M132.659 67.9985L105.601 100.674C104.891 101.514 103.858 102.03 102.76 102.03H88.0366L99.5957 70.1941C100.048 68.9026 101.275 68.0631 102.695 68.0631H132.659V67.9985Z" fill="url(#paint1_linear_1507_35)"/>
<path d="M106.828 38.4228L96.819 65.8677C96.367 67.1592 95.14 67.9987 93.7193 67.9987H50.0659C47.8057 67.9987 46.1913 65.7385 46.9662 63.6075L56.9755 36.1626C57.4275 34.8711 58.6545 34.0316 60.0752 34.0316H103.729C106.053 33.967 107.603 36.2272 106.828 38.4228Z" fill="url(#paint2_linear_1507_35)"/>
<defs>
<linearGradient id="paint0_linear_1507_35" x1="110.208" y1="17" x2="180.491" y2="17" gradientUnits="userSpaceOnUse">
<stop stop-color="white"/>
<stop offset="1" stop-color="#B5B5B5"/>
</linearGradient>
<linearGradient id="paint1_linear_1507_35" x1="85.7365" y1="99.2389" x2="128.76" y2="63.3141" gradientUnits="userSpaceOnUse">
<stop stop-color="white"/>
<stop offset="1" stop-color="#B5B5B5"/>
</linearGradient>
<linearGradient id="paint2_linear_1507_35" x1="51.8792" y1="71.9141" x2="102.002" y2="30.0616" gradientUnits="userSpaceOnUse">
<stop stop-color="white"/>
<stop offset="1" stop-color="#B5B5B5"/>
</linearGradient>
</defs>
</svg>
